<?xml version="1.0" encoding="UTF-8"?>
<!-- Created with Inkscape (http://www.inkscape.org/) -->
<svg width="4096" height="2160" inkscape:version="1.1.2 (0a00cf5339, 2022-02-04)" sodipodi:docname="404.svg" version="1.1" viewBox="0 0 4096 2160" xmlns="http://www.w3.org/2000/svg" xmlns:inkscape="http://www.inkscape.org/namespaces/inkscape" xmlns:sodipodi="http://sodipodi.sourceforge.net/DTD/sodipodi-0.dtd">
 <sodipodi:namedview bordercolor="#666666" borderopacity="1.0" inkscape:current-layer="g111" inkscape:cx="1540.8917" inkscape:cy="436.81529" inkscape:document-units="px" inkscape:guide-bbox="true" inkscape:pagecheckerboard="0" inkscape:pageopacity="0.0" inkscape:pageshadow="2" inkscape:window-height="985" inkscape:window-maximized="1" inkscape:window-width="1920" inkscape:window-x="0" inkscape:window-y="0" inkscape:zoom="0.14537037" pagecolor="#ffffff" showgrid="false" showguides="true"/>
 <defs>
  <linearGradient id="linearGradient43846" x1="4095.5" x2=".499" y1="2159.5" y2=".499" gradientUnits="userSpaceOnUse" inkscape:collect="always">
   <stop stop-color="#ccc" offset="0"/>
   <stop stop-color="#666" offset=".5"/>
   <stop stop-color="#666" offset="1"/>
  </linearGradient>
  <style>.cls-1,.cls-6,.cls-7{fill:none;}.cls-2{fill:#949494;}.cls-3{fill:url(#New_Pattern);}.cls-4{fill:#f8f8f8;}.cls-5{fill:#d3d3d3;}.cls-6,.cls-7{stroke:#000;stroke-linecap:round;stroke-width:2.5px;}.cls-6{stroke-linejoin:round;}.cls-7{stroke-miterlimit:10;}</style>
  <pattern id="New_Pattern" width="12" height="12" data-name="New Pattern" patternUnits="userSpaceOnUse" viewBox="0 0 12 12">
   <rect class="cls-1" width="12" height="12"/>
   <rect class="cls-1" width="12" height="12"/>
   <circle class="cls-2" cx="12" cy="3" r="2"/>
   <circle class="cls-2" cx="6" r="2"/>
   <circle class="cls-2" cy="3" r="2"/>
   <circle class="cls-2" cx="12" cy="9" r="2"/>
   <circle class="cls-2" cx="6" cy="6" r="2"/>
   <circle class="cls-2" cy="9" r="2"/>
   <circle class="cls-2" cx="6" cy="12" r="2"/>
  </pattern>
  <filter x="0" y="0" width="1" height="1" color-interpolation-filters="sRGB" inkscape:label="Greyscale">
   <feColorMatrix values="0 0 0 0 0 0 0 0 0 0 0 0 0 0 0 -0.52 -0.72 -0.57 1.5 0 "/>
  </filter>
  <filter id="filter2631" x="0" y="0" width="1" height="1" color-interpolation-filters="sRGB" inkscape:label="Greyscale">
   <feColorMatrix values="0 0 0 0 0 0 0 0 0 0 0 0 0 0 0 -0.62 -0.92 -0.87 1.8 0 "/>
  </filter>
  <filter id="filter4296" x="0" y="0" width="1" height="1" color-interpolation-filters="sRGB" inkscape:label="Greyscale">
   <feColorMatrix values="-0.98 0.22 0.27 1.4 0 -0.98 0.22 0.27 1.4 0 -0.98 0.22 0.27 1.4 0 0 0 0 1 0 "/>
  </filter>
  <filter id="filter4890" x="0" y="0" width="1" height="1" color-interpolation-filters="sRGB" inkscape:label="Greyscale">
   <feColorMatrix values="0 0 0 0 0 0 0 0 0 0 0 0 0 0 0 0.58 0.38 -0.07 -0.4 0 "/>
  </filter>
 </defs>
 <g inkscape:groupmode="layer" inkscape:label="Camada 1">
  <rect x=".499" y=".499" width="4095" height="2159" fill="url(#linearGradient43846)" opacity=".73" stroke="#000" stroke-width=".99799"/>
  <g transform="matrix(.93985 0 0 .93985 -66.789 44.814)">
   <g id="vector" transform="matrix(1.9493 0 0 1.9493 2166.7 287.49)">
    <polygon class="cls-3" points="442.39 212.02 444.69 230.03 453.16 226.74 452.59 222.7 458.06 208.54 449.71 207.74 447.28 186.44 442.54 165.38 439.8 145.19 435.11 124.91 434.51 121.92 434.72 94.67 432.07 86.36 427.15 80.58 422.19 82.67 426.69 93.94 428.32 110.34 425.92 122.84 425.79 124.63 428.66 145.62 433.06 168.28 437.09 189.67"/>
    <path class="cls-4" d="m445.24 229.3-10.83-56.46-9.22-49.72v-0.07c-0.08 0.19-0.15 0.39-0.23 0.57 1.13 5.84 19.48 101 19.88 105.83z"/>
    <path class="cls-4" d="m428 111.34v-0.07a1 1 0 0 1 0 0.17z"/>
    <path class="cls-4" d="m703.84 272.59c-19.68-33.74-36.26-63.2-52.17-89-63.11-7.15-99.54-35.7-131.16-35.7-3.68 0-9.4 1.5-11.57 1.5l-4.8 9 0.14 12.39 7.43 1.4 10 5.33 7.09 6.61 8.68 12.92-0.59 0.39c4.27 1.65 7.63 4.19 9.52 7.88 2.47 4.8 2.26 10.44 0.29 16.29 15.29 57.24 5.37 142.37-0.34 147.1-8.64 7.16-100.75-17-108.4-27.66-3.18-4.4-2.53-34.51 3.18-68.27l0.73-0.35c-12.55 1.5-23.82 0-30.89-7.05-16.12-16.12-8.22-129.11-7.34-141a46.85 46.85 0 0 1-3.7-19.06c0.06-15.62 6.39-28.31 14.23-28.31 3.49 0 6.69 2.53 9.16 6.71l-1-2.4h3.68l3.87 2.58 5 9.07 1.24 6.93-0.38 24.67 14.62 84.1 8.88-0.87 4.51-10 9.77-13.72 7.65-8.33v-5.28c-14.84-2.54-26.4-22.84-26.4-47.5 0-1.86 0.06-3.7 0.19-5.5l0.84-10.58 1.56-3.49c0.07-0.27 0.14-0.54 0.22-0.8-1.15-0.63-5-4.17-5-16.37 0-24 26.56-36.9 48.83-41.9-29.62-12.8-62.77-22.73-99.28-30.8-74.45-16.14-162.38-24.59-215.6 14.48s-71.71 125.14-102.09 220.61c-30.6 95.46-73.08 200.29-51.15 296 21.69 95.47 108 181.8 202.58 193.9s197.33-50 306.5-91.35 224.73-61.68 249.63-124.71-40.66-168.78-88.16-249.86zm-413.54 334.89h-57.56l39.06-13.81v-8.07h18.5z"/>
    <path class="cls-4" d="m426.49 91.3"/>
    <path class="cls-4" d="m462.08 92.88a11.39 11.39 0 0 1 0.08-1.5c-1.83 3.06-4.21 10-4.6 11.28l0.07 0.15z"/>
    <path class="cls-3" d="m503.78 263.8c5.32 2.29 50.69 29.49 50.26 58.74 0.83-25.17 0.83-46.24 0.83-46.24l-2.87-22.16-4.71-30.58-9.63 14.8-12.56 13.39-14.78 10.65z"/>
    <path class="cls-5" d="m171.08 774.78h-31.3v37.07h-45.89v-37.07h-93.89v-14l108.48-148.26h31.3v122.76h31.3zm-77.19-39.5v-46.19l-32.81 46.19z"/>
    <path class="cls-5" d="m197.21 712.49c0-57.43 16.71-102.71 75-102.71 58 0 74.14 45.28 74.14 102.71 0 57.13-16.1 102.1-74.14 102.1-58.29 0-75-44.97-75-102.1zm103.31 0c0-34.64-6.69-61.38-28.26-61.38-21.88 0-29.47 26.74-29.47 61.38 0 34.33 7.59 60.47 29.47 60.47 21.57 0.04 28.26-26.14 28.26-60.47z"/>
    <path class="cls-5" d="m535.1 774.78h-31.3v37.07h-45.88v-37.07h-93.92v-14l108.5-148.26h31.3v122.76h31.3zm-77.18-39.5v-46.19l-32.82 46.19z"/>
    <path d="m536.15 404.21c0.86 8.18 18.93 360.89 18.93 360.89h-18.93l-92.05-332.1z"/>
    <path d="m546.4 368.72c2.39 48.19-18.14 87.66-53.79 87.66-48.94 0-113.73-31.2-131.56-48.81-4.45 13.16-67.57 178.92-67.57 178.92h-26.14s16.75-193 48.15-242.5c10.33-13.76 79.92-13.25 122.51-2.93 33.81 21.39 96.73 30.94 108.4 27.66z"/>
    <path class="cls-6" d="m422.33 82.2a6.11 6.11 0 0 1 3.68-0.86c3.83 0.27 10.09 10.39 10.09 18.58s-2.31 11.27-1.61 17.22 15.85 86.63 15.85 91.55a67.52 67.52 0 0 0 8.88-0.57"/>
    <path class="cls-7" d="m503.78 170.42c15.32 1.72 26.35 12.16 34.15 27.44"/>
    <path class="cls-7" d="m452.23 226.58c7-21.6 16.54-40.38 28.92-49.85"/>
    <path class="cls-7" d="m546.74 221.62c15.29 57.24 5.37 142.37-0.34 147.1-8.64 7.16-100.75-17-108.4-27.66-3.18-4.4-2.53-34.51 3.18-68.27"/>
    <path class="cls-6" d="m472.8 218.76c-4.07 1.38-27.94 10.69-27.94 10.69-0.4-4.8-18.75-100-19.88-105.83a47.62 47.62 0 0 0 3.37-18.3c0-15.63-6.35-28.32-14.18-28.32s-14.17 12.69-14.17 28.32a46.85 46.85 0 0 0 3.7 19.06c-0.88 11.9-8.78 124.89 7.34 141 16.44 16.44 55.53 2.68 80.81-8.57"/>
    <rect transform="rotate(14.87,446.24,113.07)" x="438.44" y="107.64" width="15.5" height="10.83"/>
    <path class="cls-7" d="m527.77 195.32c8.55 1 15.57 4 18.68 10 11.29 21.92-33.42 61.41-45.79 58.47s-32.32-47.08-28.59-55c1.06-2.27 6.73-5.28 14.52-7.91"/>
    <path class="cls-6" d="m481.15 176.73v-6.2"/>
    <path class="cls-6" d="m503.78 158.94v29.78c0 1.8-5.33 2.95-10.81 3.12"/>
    <path class="cls-6" d="m508.94 149.37a48.54 48.54 0 0 1-5.16 9.57"/>
    <path class="cls-6" d="m490.25 169.83a18.84 18.84 0 0 1-6 1c-16.32 0-29.54-21.39-29.54-47.77a72.77 72.77 0 0 1 2.81-20.37"/>
    <path class="cls-6" d="m504.46 141.17c0.58 5.45 2.64 8.2 4.48 8.2 2.17 0 7.89-1.5 11.57-1.5 36.14 0 78.58 37.31 160 37.31 42.53 0 109.27-10.73 109.27-73.19 0-33.73-12.14-74.49-76.31-74.49-40.75 0-69.3 20-102.78 20-43 0-59.58-15.57-89.29-15.57-21.16 0-68.78 12.26-68.78 44.38 0 12.2 3.82 15.74 5 16.37 0.39-1.3 2.77-8.22 4.6-11.28a18.94 18.94 0 0 0 3.62 12.56"/>
    <path class="cls-6" d="m498.24 123.68a32.23 32.23 0 0 1 2.34 3"/>
    <path class="cls-6" d="m497.05 128.09a7.43 7.43 0 0 1 4.21-1.29 7.54 7.54 0 0 1 3.2 14.37"/>
    <path d="m428.35 105.32a49.32 49.32 0 0 1-2.71 16.68c8.51 1 14.67 1.73 14.67 1.73l5.87-23.73s-8.68-3.61-19.49-8a51.94 51.94 0 0 1 1.66 13.32z"/>
    <path d="m400 105.32c0-8.83 2-16.71 5.2-21.9-9.33-3.67-17.18-6.65-19.41-7.21-6.49-1.6-16 37.61-9.69 39.18 2.55 0.63 13.52 2.1 25.69 3.64a51.61 51.61 0 0 1-1.79-13.71z"/>
    <polyline class="cls-6" points="290.3 585.6 290.3 607.48 232.74 607.48 271.81 593.67 271.81 585.6"/>
    <polyline class="cls-6" points="554.08 764.27 554.08 786.15 502.52 786.15 537.51 772.34 537.51 764.27"/>
   </g>
   <text x="1044.7463" y="1190.4658" font-family="'Noto Color Emoji'" font-size="233.9px" stroke-width="5.8475" style="line-height:1.25" xml:space="preserve"><tspan x="1044.7463" y="1190.4658" font-family="Courgette" stroke-width="5.8475" sodipodi:role="line">Desculpe!!!</tspan></text>
   <text transform="scale(.78853 1.2682)" x="2029.2556" y="1145.0948" font-family="Courgette" font-size="161.71px" stroke-width="4.0429" text-anchor="middle" style="line-height:0.85" xml:space="preserve"><tspan x="2029.2556" y="1145.0948" text-align="center" sodipodi:role="line"><tspan dy="0 0 0 0" font-family="Courgette" stroke-width="4.0428" text-align="center" text-anchor="middle">Mas não achamos o que você</tspan></tspan><tspan x="2029.2556" y="1282.55" text-align="center" sodipodi:role="line">estava procurando!</tspan></text>
   <g transform="matrix(.25382 0 0 .25382 2117.7 611.81)">
    <g transform="matrix(58.824 0 0 58.824 -3904.3 -700.78)">
     <path d="m12 3-9 8.985v12.015l9 9h12l9-9v-12.015l-9-8.985z" fill="#dd2e44" filter="url(#filter4296)"/>
     <path d="m24.827 1h-13.654l-10.173 10.156v13.672l10.172 10.172h13.657l10.171-10.172v-13.672zm8.173 23-9 9h-12l-9-9v-12.015l9-8.985h12l9 8.985z" fill="#ccd6dd"/>
    </g>
    <g transform="matrix(33.249 0 0 33.249 -3443.9 -241.9)" filter="url(#filter4890)">
     <path d="m36 18c0 9.941-8.059 18-18 18-9.94 0-18-8.059-18-18 0-9.94 8.06-18 18-18 9.941 0 18 8.06 18 18" fill="#ffcc4d"/>
     <ellipse cx="18" cy="27" rx="5" ry="6" fill="#664500"/>
     <path d="m5.999 11c-0.208 0-0.419-0.065-0.599-0.2-0.442-0.331-0.531-0.958-0.2-1.4 3.262-4.35 7.616-4.4 7.8-4.4 0.552 0 1 0.448 1 1 0 0.551-0.445 0.998-0.996 1-0.155 2e-3 -3.568 0.086-6.204 3.6-0.196 0.262-0.497 0.4-0.801 0.4zm24.002 0c-0.305 0-0.604-0.138-0.801-0.4-2.64-3.521-6.061-3.598-6.206-3.6-0.55-6e-3 -0.994-0.456-0.991-1.005 3e-3 -0.551 0.447-0.995 0.997-0.995 0.184 0 4.537 0.05 7.8 4.4 0.332 0.442 0.242 1.069-0.2 1.4-0.18 0.135-0.39 0.2-0.599 0.2zm-16.087 4.5 1.793-1.793c0.391-0.391 0.391-1.023 0-1.414s-1.023-0.391-1.414 0l-1.793 1.793-1.793-1.793c-0.391-0.391-1.023-0.391-1.414 0s-0.391 1.023 0 1.414l1.793 1.793-1.793 1.793c-0.391 0.391-0.391 1.023 0 1.414 0.195 0.195 0.451 0.293 0.707 0.293s0.512-0.098 0.707-0.293l1.793-1.793 1.793 1.793c0.195 0.195 0.451 0.293 0.707 0.293s0.512-0.098 0.707-0.293c0.391-0.391 0.391-1.023 0-1.414zm11 0 1.793-1.793c0.391-0.391 0.391-1.023 0-1.414s-1.023-0.391-1.414 0l-1.793 1.793-1.793-1.793c-0.391-0.391-1.023-0.391-1.414 0s-0.391 1.023 0 1.414l1.793 1.793-1.793 1.793c-0.391 0.391-0.391 1.023 0 1.414 0.195 0.195 0.451 0.293 0.707 0.293s0.512-0.098 0.707-0.293l1.793-1.793 1.793 1.793c0.195 0.195 0.451 0.293 0.707 0.293s0.512-0.098 0.707-0.293c0.391-0.391 0.391-1.023 0-1.414z" fill="#664500"/>
    </g>
   </g>
   <g transform="matrix(.35949 0 0 .35949 2372.7 -193.15)" filter="url(#filter2631)" image-rendering="auto" style="-webkit-filter:grayscale(100%)">
    <g transform="matrix(55.49 0 0 55.49 -1968.7 1321.8)">
     <path d="m21.906 1.262c-2.02-0.654-6.772-0.475-7.96 1.069-3.089 0.059-6.713 2.851-7.188 6.535-0.47 3.645 0.578 5.338 0.951 8.079 0.422 3.106 2.168 4.099 3.564 4.515 2.008 2.654 4.142 2.54 7.727 2.54 7 0 10.334-4.684 10.629-12.639 0.178-4.812-2.645-8.456-7.723-10.099z" fill="#ffac33"/>
     <path d="m27 21h-18c-2.209 0-4 1.791-4 4v11h26v-11c0-2.209-1.791-4-4-4z" fill="#fa743e"/>
     <path d="m25.904 11.734c-0.677-0.938-1.545-1.693-3.446-1.96 0.713 0.327 1.396 1.455 1.485 2.079s0.178 1.129-0.386 0.505c-2.261-2.499-4.723-1.515-7.163-3.041-1.703-1.067-2.222-2.247-2.222-2.247s-0.208 1.574-2.792 3.178c-0.749 0.465-1.643 1.501-2.139 3.03-0.356 1.099-0.246 2.079-0.246 3.754 0 4.889 4.029 9 9 9s9-4.147 9-9c0-3.041-0.318-4.229-1.091-5.298z" fill="#ffdc5d"/>
     <path d="m10 27h1v9h-1z" fill="#dd551f"/>
     <path d="m4.702 26.495-0.283-0.059h-0.511c0-0.058 0.023-0.112 0.035-0.169-0.348-0.215-0.546-0.625-0.458-1.048 0.112-0.542 0.643-0.89 1.186-0.779l2.091 0.433h1.676c0.863 0 1.562 0.7 1.562 1.564v1.563h-3.747s-1.481-0.669-1.551-1.505z" fill="#fcab40"/>
     <path d="m0 25.655c0-0.432 0.35-0.782 0.781-0.782l4.69 0.782h3.747c0.432 0 0.781 0.351 0.781 0.781v1.564h-4.999l-4.219-1.563s-0.781-0.35-0.781-0.782z" fill="#ffdc5d"/>
     <path d="m4 36h6v-8h-5z" fill="#fa743e"/>
     <path d="m25 27h1v9h-1z" fill="#dd551f"/>
     <path d="m31.298 26.495 0.283-0.059h0.511c0-0.058-0.023-0.112-0.035-0.169 0.348-0.215 0.546-0.625 0.458-1.048-0.112-0.542-0.642-0.89-1.185-0.779l-2.091 0.433h-1.676c-0.863 0-1.562 0.7-1.562 1.564v1.563h3.747c-1e-3 0 1.48-0.669 1.55-1.505z" fill="#fcab40"/>
     <path d="m36 25.655c0-0.432-0.35-0.782-0.781-0.782l-4.691 0.782h-3.747c-0.432 0-0.781 0.351-0.781 0.781v1.564h5l4.219-1.563s0.781-0.35 0.781-0.782z" fill="#ffdc5d"/>
     <path d="m32 36h-6v-8h5z" fill="#fa743e"/>
     <path d="m19 19.5h-2c-0.276 0-0.5-0.224-0.5-0.5s0.224-0.5 0.5-0.5h2c0.276 0 0.5 0.224 0.5 0.5s-0.224 0.5-0.5 0.5zm1.5 3.5h-0.5c-0.276 0-0.5-0.224-0.5-0.5s0.224-0.5 0.5-0.5h0.5c0.276 0 0.5 0.224 0.5 0.5s-0.224 0.5-0.5 0.5z" fill="#c1694f"/>
     <path d="m14 16c-0.552 0-1-0.448-1-1v-1c0-0.552 0.448-1 1-1s1 0.448 1 1v1c0 0.552-0.448 1-1 1zm8 0c-0.553 0-1-0.448-1-1v-1c0-0.552 0.447-1 1-1s1 0.448 1 1v1c0 0.552-0.447 1-1 1z" fill="#662113"/>
    </g>
   </g>
  </g>
 </g>
</svg>
