<?xml version="1.0" encoding="UTF-8"?>
<svg width="83.511mm" height="83.511mm" version="1.1" viewBox="0 0 83.511 83.511" xmlns="http://www.w3.org/2000/svg">
 <g transform="translate(-33.444 -113.58)" fill="#32bcad" stroke-width=".26458">
  <path d="m98.572 177.46a12.189 12.189 0 0 1-8.673-3.5798l-12.528-12.536a2.3812 2.3812 0 0 0-3.2914 0l-12.57 12.57a12.195 12.195 0 0 1-8.673 3.5904h-2.4527l15.875 15.875a12.7 12.7 0 0 0 17.941 0l15.907-15.909z"/>
  <path d="m52.839 133.16a12.192 12.192 0 0 1 8.673 3.5904l12.57 12.573a2.331 2.331 0 0 0 3.2914 0l12.525-12.525a12.171 12.171 0 0 1 8.673-3.593h1.5081l-15.907-15.907a12.684 12.684 0 0 0-17.941 0l-15.849 15.862z"/>
  <path d="m113.24 146.36-9.6123-9.6123a1.8521 1.8521 0 0 1-0.68262 0.13758h-4.3709a8.6307 8.6307 0 0 0-6.0669 2.5135l-12.525 12.517a6.0166 6.0166 0 0 1-8.5011 0l-12.573-12.565a8.6307 8.6307 0 0 0-6.0669-2.5162h-5.3658a1.8838 1.8838 0 0 1-0.64558-0.12965l-9.6732 9.6546a12.7 12.7 0 0 0 0 17.941l9.652 9.652a1.8124 1.8124 0 0 1 0.64558-0.12964h5.3869a8.6334 8.6334 0 0 0 6.0669-2.5162l12.57-12.57c2.2728-2.2701 6.2336-2.2701 8.5037 0l12.525 12.523a8.6307 8.6307 0 0 0 6.0669 2.5135h4.3709a1.8256 1.8256 0 0 1 0.68262 0.13758l9.6123-9.6123a12.684 12.684 0 0 0 0-17.941"/>
 </g>
</svg>
