<?xml version="1.0" encoding="UTF-8"?>
<!-- Created with Inkscape (http://www.inkscape.org/) -->
<svg width="820" height="462" inkscape:version="1.1.2 (0a00cf5339, 2022-02-04)" sodipodi:docname="react-spash.svg" version="1.1" viewBox="0 0 820 462" xmlns="http://www.w3.org/2000/svg" xmlns:inkscape="http://www.inkscape.org/namespaces/inkscape" xmlns:sodipodi="http://sodipodi.sourceforge.net/DTD/sodipodi-0.dtd">
 <sodipodi:namedview bordercolor="#666666" borderopacity="1.0" inkscape:current-layer="g6423" inkscape:cx="177.34238" inkscape:cy="257.19831" inkscape:document-units="px" inkscape:guide-bbox="true" inkscape:pagecheckerboard="0" inkscape:pageopacity="0.0" inkscape:pageshadow="2" inkscape:window-height="985" inkscape:window-maximized="1" inkscape:window-width="1920" inkscape:window-x="0" inkscape:window-y="0" inkscape:zoom="0.48211826" pagecolor="#ffffff" showgrid="false" showguides="true"/>
 <defs>
  <style>.cls-1{fill:#ffa726;}.cls-2{fill:#fb8c00;}.cls-3{fill:#ffe0b2;}.cls-4{fill:#fff3e0;}.cls-5{fill:#fff;}</style>
  <clipPath>
   <path d="m0 600h600v-600h-600z"/>
  </clipPath>
  <clipPath>
   <path d="m239.03 373.39-42.134-24.315c-1.576-0.909-2.545-2.588-2.545-4.407v-48.666c0-1.818 0.969-3.497 2.544-4.408l42.133-24.334c1.576-0.909 3.516-0.909 5.091 0l42.124 24.334c1.574 0.911 2.543 2.59 2.543 4.408v48.668c0 1.817-0.969 3.496-2.545 4.405l-42.123 24.315c-0.787 0.454-1.666 0.682-2.544 0.682-0.879 0-1.757-0.228-2.544-0.682"/>
  </clipPath>
  <linearGradient x2="1" gradientTransform="matrix(-38.065 -77.652 -77.652 38.065 258.7 355.29)" gradientUnits="userSpaceOnUse">
   <stop stop-color="#687e67" offset="0"/>
   <stop stop-color="#687e67" offset=".5288"/>
   <stop stop-color="#83a178" offset="1"/>
  </linearGradient>
  <clipPath>
   <path d="m195.4 292.91c0.401-0.525 0.906-0.975 1.497-1.317l36.143-20.874 6.017-3.46c0.9-0.519 1.927-0.739 2.936-0.665 0.337 0.028 0.673 0.09 1.001 0.185l44.43 81.357c-0.34 0.365-0.736 0.682-1.181 0.938l-27.588 15.925-14.579 8.39c-0.417 0.24-0.864 0.413-1.323 0.526z"/>
  </clipPath>
  <linearGradient x2="1" gradientTransform="matrix(106.81 78.915 78.915 -106.81 235.16 314.65)" gradientUnits="userSpaceOnUse">
   <stop stop-color="#687e67" offset="0"/>
   <stop stop-color="#687e67" offset=".13756"/>
   <stop stop-color="#9bb48f" offset=".69737"/>
   <stop stop-color="#9bb48f" offset=".90808"/>
   <stop stop-color="#9bb48f" offset="1"/>
  </linearGradient>
  <clipPath>
   <path d="m239.03 373.39-42.134-24.315c-1.575-0.909-2.545-2.588-2.545-4.407v-48.666c0-1.818 0.97-3.497 2.544-4.408l42.133-24.334c1.576-0.909 3.516-0.909 5.091 0l42.124 24.334c1.574 0.911 2.543 2.59 2.543 4.408v48.668c0 1.817-0.969 3.496-2.545 4.405l-42.123 24.315c-0.787 0.454-1.666 0.682-2.544 0.682-0.879 0-1.757-0.228-2.544-0.682"/>
  </clipPath>
  <clipPath>
   <path d="m237.63 382.33-0.58-0.331h0.774z"/>
  </clipPath>
  <linearGradient x2="1" gradientTransform="matrix(97.417 0 0 -97.417 192.86 382.17)" gradientUnits="userSpaceOnUse">
   <stop stop-color="#687e67" offset="0"/>
   <stop stop-color="#687e67" offset="1"/>
  </linearGradient>
  <clipPath>
   <path d="m241.06 374.05c-0.705-0.07-1.398-0.289-2.033-0.655l-42.014-24.245 45.293-82.513c0.628 0.091 1.243 0.301 1.81 0.628l42.124 24.334c1.301 0.753 2.189 2.031 2.458 3.477l-46.178 78.89c-0.341 0.068-0.688 0.102-1.035 0.102-0.142 0-0.284-6e-3 -0.425-0.018"/>
  </clipPath>
  <linearGradient x2="1" gradientTransform="matrix(97.417 0 0 -97.417 192.86 320.35)" gradientUnits="userSpaceOnUse">
   <stop stop-color="#9bb48f" offset="0"/>
   <stop stop-color="#9bb48f" offset=".091916"/>
   <stop stop-color="#9bb48f" offset=".30263"/>
   <stop stop-color="#687e67" offset=".86244"/>
   <stop stop-color="#687e67" offset="1"/>
  </linearGradient>
  <clipPath>
   <path d="m239.03 373.39-42.134-24.315c-1.575-0.909-2.545-2.588-2.545-4.407v-48.666c0-1.818 0.97-3.497 2.544-4.408l42.133-24.334c1.576-0.909 3.516-0.909 5.091 0l42.124 24.334c1.574 0.911 2.543 2.59 2.543 4.408v48.668c0 1.817-0.969 3.496-2.545 4.405l-42.123 24.315c-0.787 0.454-1.666 0.682-2.544 0.682-0.879 0-1.757-0.228-2.544-0.682"/>
  </clipPath>
  <clipPath>
   <path d="m290.28 292.38-0.279 0.477v-0.639z"/>
  </clipPath>
  <linearGradient x2="1" gradientTransform="matrix(97.417 0 0 -97.417 192.86 292.54)" gradientUnits="userSpaceOnUse">
   <stop stop-color="#9bb48f" offset="0"/>
   <stop stop-color="#9bb48f" offset=".091916"/>
   <stop stop-color="#9bb48f" offset=".30263"/>
   <stop stop-color="#687e67" offset=".86244"/>
   <stop stop-color="#687e67" offset="1"/>
  </linearGradient>
  <clipPath>
   <path d="m239.03 373.39-42.134-24.315c-1.575-0.909-2.545-2.588-2.545-4.407v-48.666c0-1.818 0.97-3.497 2.544-4.408l42.133-24.334c1.576-0.909 3.516-0.909 5.091 0l42.124 24.334c1.574 0.911 2.543 2.59 2.543 4.408v48.668c0 1.817-0.969 3.496-2.545 4.405l-42.123 24.315c-0.787 0.454-1.666 0.682-2.544 0.682-0.879 0-1.757-0.228-2.544-0.682"/>
  </clipPath>
  <clipPath>
   <path d="m286.35 291.6-42.177-24.333c-0.58-0.335-1.213-0.545-1.861-0.633l0.84-1.53 46.847 27.117v0.639l-1.158 1.979c-0.347-1.348-1.263-2.528-2.491-3.239"/>
  </clipPath>
  <linearGradient x2="1" gradientTransform="matrix(97.417 0 0 -97.417 192.86 279.97)" gradientUnits="userSpaceOnUse">
   <stop stop-color="#9bb48f" offset="0"/>
   <stop stop-color="#9bb48f" offset=".091916"/>
   <stop stop-color="#9bb48f" offset=".30263"/>
   <stop stop-color="#687e67" offset=".86244"/>
   <stop stop-color="#687e67" offset="1"/>
  </linearGradient>
  <clipPath>
   <path d="m239.03 373.39-42.134-24.315c-1.575-0.909-2.545-2.588-2.545-4.407v-48.666c0-1.818 0.97-3.497 2.544-4.408l42.133-24.334c1.576-0.909 3.516-0.909 5.091 0l42.124 24.334c1.574 0.911 2.543 2.59 2.543 4.408v48.668c0 1.817-0.969 3.496-2.545 4.405l-42.123 24.315c-0.787 0.454-1.666 0.682-2.544 0.682-0.879 0-1.757-0.228-2.544-0.682"/>
  </clipPath>
  <clipPath>
   <path d="m286.35 291.6-42.177-24.333c-0.58-0.335-1.213-0.545-1.861-0.633l0.84-1.53 46.847 27.117v0.639l-1.158 1.979c-0.347-1.348-1.263-2.528-2.491-3.239"/>
  </clipPath>
  <linearGradient x2="1" gradientTransform="matrix(-60.081 -122.56 -122.56 60.081 304.47 357.59)" gradientUnits="userSpaceOnUse">
   <stop stop-color="#687e67" offset="0"/>
   <stop stop-color="#687e67" offset=".5288"/>
   <stop stop-color="#83a178" offset="1"/>
  </linearGradient>
  <clipPath>
   <path d="m0 600h600v-600h-600z"/>
  </clipPath>
  <clipPath>
   <path d="m239.03 373.39-42.134-24.315c-1.576-0.909-2.545-2.588-2.545-4.407v-48.666c0-1.818 0.969-3.497 2.544-4.408l42.133-24.334c1.576-0.909 3.516-0.909 5.091 0l42.124 24.334c1.574 0.911 2.543 2.59 2.543 4.408v48.668c0 1.817-0.969 3.496-2.545 4.405l-42.123 24.315c-0.787 0.454-1.666 0.682-2.544 0.682-0.879 0-1.757-0.228-2.544-0.682"/>
  </clipPath>
  <clipPath>
   <path d="m195.4 292.91c0.401-0.525 0.906-0.975 1.497-1.317l36.143-20.874 6.017-3.46c0.9-0.519 1.927-0.739 2.936-0.665 0.337 0.028 0.673 0.09 1.001 0.185l44.43 81.357c-0.34 0.365-0.736 0.682-1.181 0.938l-27.588 15.925-14.579 8.39c-0.417 0.24-0.864 0.413-1.323 0.526z"/>
  </clipPath>
  <clipPath>
   <path d="m239.03 373.39-42.134-24.315c-1.575-0.909-2.545-2.588-2.545-4.407v-48.666c0-1.818 0.97-3.497 2.544-4.408l42.133-24.334c1.576-0.909 3.516-0.909 5.091 0l42.124 24.334c1.574 0.911 2.543 2.59 2.543 4.408v48.668c0 1.817-0.969 3.496-2.545 4.405l-42.123 24.315c-0.787 0.454-1.666 0.682-2.544 0.682-0.879 0-1.757-0.228-2.544-0.682"/>
  </clipPath>
  <clipPath>
   <path d="m237.63 382.33-0.58-0.331h0.774z"/>
  </clipPath>
  <clipPath>
   <path d="m241.06 374.05c-0.705-0.07-1.398-0.289-2.033-0.655l-42.014-24.245 45.293-82.513c0.628 0.091 1.243 0.301 1.81 0.628l42.124 24.334c1.301 0.753 2.189 2.031 2.458 3.477l-46.178 78.89c-0.341 0.068-0.688 0.102-1.035 0.102-0.142 0-0.284-6e-3 -0.425-0.018"/>
  </clipPath>
  <clipPath>
   <path d="m239.03 373.39-42.134-24.315c-1.575-0.909-2.545-2.588-2.545-4.407v-48.666c0-1.818 0.97-3.497 2.544-4.408l42.133-24.334c1.576-0.909 3.516-0.909 5.091 0l42.124 24.334c1.574 0.911 2.543 2.59 2.543 4.408v48.668c0 1.817-0.969 3.496-2.545 4.405l-42.123 24.315c-0.787 0.454-1.666 0.682-2.544 0.682-0.879 0-1.757-0.228-2.544-0.682"/>
  </clipPath>
  <clipPath>
   <path d="m290.28 292.38-0.279 0.477v-0.639z"/>
  </clipPath>
  <clipPath>
   <path d="m239.03 373.39-42.134-24.315c-1.575-0.909-2.545-2.588-2.545-4.407v-48.666c0-1.818 0.97-3.497 2.544-4.408l42.133-24.334c1.576-0.909 3.516-0.909 5.091 0l42.124 24.334c1.574 0.911 2.543 2.59 2.543 4.408v48.668c0 1.817-0.969 3.496-2.545 4.405l-42.123 24.315c-0.787 0.454-1.666 0.682-2.544 0.682-0.879 0-1.757-0.228-2.544-0.682"/>
  </clipPath>
  <clipPath>
   <path d="m286.35 291.6-42.177-24.333c-0.58-0.335-1.213-0.545-1.861-0.633l0.84-1.53 46.847 27.117v0.639l-1.158 1.979c-0.347-1.348-1.263-2.528-2.491-3.239"/>
  </clipPath>
  <clipPath>
   <path d="m239.03 373.39-42.134-24.315c-1.575-0.909-2.545-2.588-2.545-4.407v-48.666c0-1.818 0.97-3.497 2.544-4.408l42.133-24.334c1.576-0.909 3.516-0.909 5.091 0l42.124 24.334c1.574 0.911 2.543 2.59 2.543 4.408v48.668c0 1.817-0.969 3.496-2.545 4.405l-42.123 24.315c-0.787 0.454-1.666 0.682-2.544 0.682-0.879 0-1.757-0.228-2.544-0.682"/>
  </clipPath>
  <clipPath>
   <path d="m286.35 291.6-42.177-24.333c-0.58-0.335-1.213-0.545-1.861-0.633l0.84-1.53 46.847 27.117v0.639l-1.158 1.979c-0.347-1.348-1.263-2.528-2.491-3.239"/>
  </clipPath>
  <filter x="-.022727" y="-.051282" width="1.0455" height="1.1026" color-interpolation-filters="sRGB" inkscape:label="Dark and Glow" inkscape:menu="Shadows and Glows" inkscape:menu-tooltip="Darkens the edge with an inner blur and adds a flexible glow">
   <feGaussianBlur result="result6" stdDeviation="5"/>
   <feComposite in="SourceGraphic" in2="result6" operator="atop" result="result8"/>
   <feComposite in="result8" in2="SourceAlpha" result="result9"/>
   <feColorMatrix result="result10" values="1 0 0 0 0 0 1 0 0 0 0 0 1 0 0 0 0 0 1 0 "/>
   <feBlend in="result10" in2="result6"/>
  </filter>
 </defs>
 <g inkscape:groupmode="layer" inkscape:label="Camada 1">
  <rect width="820" height="462" ry=".64904" fill="#20232a" style="mix-blend-mode:darken"/>
  <g transform="matrix(.62947 0 0 .62947 252.54 38.462)" fill="none" fill-rule="evenodd">
   <circle cx="269.53" cy="237.63" r="50.167" fill="#00d8ff"/>
   <g stroke="#00d8ff" stroke-width="24">
    <path d="m269.53 135.63c67.356 0 129.93 9.665 177.11 25.907 56.844 19.57 91.794 49.233 91.794 76.093 0 27.99-37.04 59.503-98.083 79.728-46.15 15.29-106.88 23.272-170.82 23.272-65.554 0-127.63-7.492-174.3-23.44-59.046-20.182-94.61-52.103-94.61-79.56 0-26.642 33.37-56.076 89.415-75.616 47.355-16.51 111.47-26.384 179.49-26.384z"/>
    <path d="m180.74 186.92c33.65-58.348 73.28-107.72 110.92-140.48 45.35-39.466 88.507-54.922 111.77-41.505 24.248 13.983 33.042 61.814 20.067 124.8-9.8 47.618-33.234 104.21-65.176 159.6-32.75 56.788-70.25 106.82-107.38 139.27-46.98 41.068-92.4 55.93-116.18 42.213-23.08-13.3-31.906-56.92-20.834-115.23 9.355-49.27 32.832-109.74 66.8-168.66z"/>
    <path d="m180.82 289.48c-33.745-58.282-56.72-117.29-66.31-166.26-11.544-59-3.382-104.11 19.864-117.57 24.224-14.024 70.055 2.244 118.14 44.94 36.356 32.28 73.688 80.837 105.72 136.17 32.844 56.733 57.46 114.21 67.036 162.58 12.117 61.213 2.31 107.98-21.453 121.74-23.057 13.348-65.25-0.784-110.24-39.5-38.013-32.71-78.682-83.253-112.76-142.12z"/>
   </g>
  </g>
  <g fill="#00d8ff" stroke-width="1.2493" aria-label="React">
   <path d="m295.3 349.36q18.709 0 28.663 6.7161 9.9542 6.5962 9.9542 20.628 0 8.7549-4.0776 14.272-3.9577 5.3968-11.513 8.515 2.5185 3.1182 5.2769 7.1958 2.7584 3.9577 5.3968 8.3951 2.7584 4.3175 5.2769 9.1147 2.5185 4.6773 4.6773 9.2346h-20.988q-2.2787-4.0776-4.6773-8.2752-2.2787-4.1976-4.7972-8.1552-2.3986-3.9577-4.7972-7.4357-2.3986-3.5979-4.7972-6.4762h-9.2346v30.342h-18.709v-81.912q6.1164-1.1993 12.593-1.679 6.5962-0.47972 11.753-0.47972zm1.0794 15.951q-2.0388 0-3.7178 0.11993-1.5591 0.11993-2.9982 0.23986v22.547h5.2769q10.554 0 15.111-2.6385t4.5573-8.9948q0-6.1164-4.6773-8.635-4.5573-2.6385-13.552-2.6385z"/>
   <path d="m343.75 402.36q0-8.3951 2.5185-14.631 2.6385-6.3563 6.836-10.554t9.5944-6.3563q5.5168-2.1587 11.273-2.1587 13.432 0 21.228 8.2752 7.7954 8.1552 7.7954 24.106 0 1.5591-0.11993 3.478-0.11993 1.799-0.23986 3.2381h-40.536q0.59965 5.5168 5.157 8.7549t12.233 3.2381q4.9171 0 9.5944-0.83951 4.7972-0.95944 7.7954-2.2787l2.3986 14.512q-1.4392 0.71958-3.8378 1.4392t-5.3968 1.1993q-2.8783 0.59965-6.2364 0.95944t-6.7161 0.35979q-8.515 0-14.871-2.5185-6.2364-2.5185-10.434-6.836-4.0776-4.4374-6.1164-10.434-1.9189-5.9965-1.9189-12.952zm41.976-6.836q-0.11993-2.2787-0.83951-4.4374-0.59965-2.1587-2.0388-3.8378-1.3192-1.679-3.478-2.7584-2.0388-1.0794-5.157-1.0794-2.9982 0-5.157 1.0794-2.1587 0.95944-3.5979 2.6385t-2.2787 3.9577q-0.71958 2.1587-1.0794 4.4374z"/>
   <path d="m440.89 420.95q2.6385 0 5.0371-0.11993t3.8378-0.35979v-13.552q-1.0794-0.23986-3.2381-0.47972t-3.9577-0.23986q-2.5185 0-4.7972 0.35979-2.1587 0.23986-3.8378 1.0794t-2.6385 2.2787-0.95944 3.5979q0 4.1976 2.7584 5.8766 2.8783 1.5591 7.7954 1.5591zm-1.4392-52.289q7.9154 0 13.192 1.799t8.3951 5.157q3.2381 3.358 4.5573 8.1552t1.3192 10.674v37.178q-3.8378 0.83951-10.674 1.9189-6.836 1.1993-16.55 1.1993-6.1164 0-11.153-1.0794-4.9171-1.0794-8.515-3.478-3.5979-2.5185-5.5168-6.4762t-1.9189-9.7143q0-5.5168 2.1587-9.3545 2.2787-3.8378 5.9965-6.1164t8.515-3.2381q4.7972-1.0794 9.9542-1.0794 3.478 0 6.1164 0.35979 2.7584 0.23986 4.4374 0.71958v-1.679q0-4.5573-2.7584-7.3157t-9.5944-2.7584q-4.5573 0-8.9948 0.71958-4.4374 0.59965-7.6755 1.799l-2.2787-14.392q1.5591-0.47972 3.8378-0.95944 2.3986-0.59965 5.157-0.95944 2.7584-0.47972 5.7566-0.71958 3.1182-0.35979 6.2364-0.35979z"/>
   <path d="m480.11 401.89q0-6.836 2.1587-12.833 2.2787-6.1164 6.4762-10.554 4.1976-4.5573 10.194-7.1958t13.672-2.6385q5.0371 0 9.2346 0.95944 4.1976 0.83951 8.1552 2.5185l-3.7178 14.272q-2.5185-0.95944-5.5168-1.679t-6.7161-0.71958q-7.9154 0-11.873 4.9171-3.8378 4.9171-3.8378 12.952 0 8.515 3.5979 13.192 3.7178 4.6773 12.833 4.6773 3.2381 0 6.9559-0.59965t6.836-1.9189l2.5185 14.631q-3.1182 1.3192-7.7954 2.2787t-10.314 0.95944q-8.635 0-14.871-2.5185-6.2364-2.6385-10.314-7.0759-3.9577-4.4374-5.8766-10.434-1.799-6.1164-1.799-13.192z"/>
   <path d="m542.47 354.63 17.87-2.8783v18.589h21.467v14.871h-21.467v22.187q0 5.6367 1.9189 8.9948 2.0388 3.358 8.0353 3.358 2.8783 0 5.8766-0.47972 3.1182-0.59965 5.6367-1.5591l2.5185 13.912q-3.2381 1.3192-7.1958 2.2787t-9.7143 0.95944q-7.3157 0-12.113-1.9189-4.7972-2.0388-7.6755-5.5168-2.8783-3.5979-4.0776-8.635-1.0794-5.0371-1.0794-11.153z"/>
  </g>
 </g>
 <style type="text/css">.st0{fill:#DD0031;}
	.st1{fill:#C3002F;}
	.st2{fill:#FFFFFF;}</style>
</svg>
